<svg width="24" height="24" viewBox="0 0 24 24" fill="none" xmlns="http://www.w3.org/2000/svg">
<circle cx="12" cy="12" r="12" fill="url(#paint0_linear_98_2974)"/>
<path fill-rule="evenodd" clip-rule="evenodd" d="M11.5695 6.28571L17.3772 16.3592L18 15.279L12.815 6.28571H11.5695ZM6 15.2608L10.9708 6.63903L10.981 6.6568L10.9908 6.63983L16.8815 16.8571H15.6359L14.1477 14.2759C13.4715 14.0622 12.7516 13.9469 12.0046 13.9469C11.6196 13.9469 11.2439 13.9738 10.8786 14.0274L11.5959 12.7852C11.7313 12.7786 11.8676 12.7752 12.0046 12.7752C12.4609 12.7752 12.9086 12.8122 13.3448 12.8832L10.9806 8.78245L6.6228 16.341L6 15.2608ZM9.37933 15.1298L11.6129 11.2556L10.9902 10.1754L7.13791 16.8571H8.38347L8.39529 16.8366C9.4636 16.1935 10.6895 15.8684 12.028 15.8684C12.8828 15.8684 13.7023 16.0194 14.4612 16.2961L13.6268 14.8511C13.1001 14.7482 12.5647 14.6965 12.028 14.6968C11.1017 14.6968 10.2109 14.849 9.37933 15.1298Z" fill="white"/>
<defs>
<linearGradient id="paint0_linear_98_2974" x1="19.8571" y1="21.2857" x2="2.60396" y2="4.28445" gradientUnits="userSpaceOnUse">
<stop stop-color="#5A81FF"/>
<stop offset="0.524" stop-color="#E40C5B"/>
<stop offset="1" stop-color="#FF4C3B"/>
</linearGradient>
</defs>
</svg>
