<svg width="24" height="24" viewBox="0 0 24 24" fill="none" xmlns="http://www.w3.org/2000/svg">
<g clip-path="url(#clip0_252_467)">
<path fill-rule="evenodd" clip-rule="evenodd" d="M12 0C18.6264 0 24 5.3736 24 12C24 18.6264 18.6264 24 12 24C5.3736 24 0 18.6264 0 12C0 5.3736 5.3736 0 12 0Z" fill="#211F6D"/>
<path fill-rule="evenodd" clip-rule="evenodd" d="M7.896 6.216H15.888C16.9488 6.216 17.808 7.0752 17.808 8.136V16.128C17.808 17.0568 17.0568 17.808 16.128 17.808H7.896C6.9672 17.808 6.216 17.0568 6.216 16.128V7.896C6.216 6.9672 6.9672 6.216 7.896 6.216Z" fill="white"/>
<path d="M9.27117 11.0592C8.53917 11.0592 7.94397 10.464 7.94397 9.72959C7.94397 8.99519 8.53917 8.39999 9.27117 8.39999C10.0032 8.39999 10.5984 8.99519 10.5984 9.72959C10.5984 10.464 10.0032 11.0592 9.27117 11.0592Z" fill="#211F6D"/>
<path d="M14.7288 11.0592C13.9968 11.0592 13.4016 10.464 13.4016 9.72959C13.4016 8.99519 13.9968 8.39999 14.7288 8.39999C15.4608 8.39999 16.056 8.99519 16.056 9.72959C16.056 10.464 15.4608 11.0592 14.7288 11.0592Z" fill="#211F6D"/>
<path d="M9.27117 15.6C8.53917 15.6 7.94397 15.0048 7.94397 14.2704C7.94397 13.536 8.53917 12.9408 9.27117 12.9408C10.0032 12.9408 10.5984 13.536 10.5984 14.2704C10.5984 15.0048 10.0032 15.6 9.27117 15.6Z" fill="#211F6D"/>
<path d="M14.7288 15.6C13.9968 15.6 13.4016 15.0048 13.4016 14.2704C13.4016 13.536 13.9968 12.9408 14.7288 12.9408C15.4608 12.9408 16.056 13.536 16.056 14.2704C16.056 15.0048 15.4608 15.6 14.7288 15.6Z" fill="#211F6D"/>
</g>
<defs>
<clipPath id="clip0_252_467">
<rect width="24" height="24" fill="white"/>
</clipPath>
</defs>
</svg>
