<svg width="24" height="24" viewBox="0 0 24 24" fill="none" xmlns="http://www.w3.org/2000/svg">
<path d="M12 24C18.6274 24 24 18.6274 24 12C24 5.37258 18.6274 0 12 0C5.37258 0 0 5.37258 0 12C0 18.6274 5.37258 24 12 24Z" fill="black"/>
<path d="M20.8072 10.1543C20.6886 9.5781 20.5133 9.01511 20.2837 8.4735C20.0575 7.94004 19.7808 7.42945 19.4572 6.94875C19.1364 6.47384 18.7705 6.03103 18.3645 5.6265C17.9597 5.22048 17.5166 4.85453 17.0415 4.53375C16.5601 4.21184 16.0499 3.93516 15.5175 3.70725C14.4164 3.24027 13.2327 2.99962 12.0367 2.99962C10.8408 2.99962 9.65701 3.24027 8.55597 3.70725C7.49131 4.15632 6.52431 4.80847 5.70897 5.62725C5.30303 6.03154 4.93708 6.4741 4.61622 6.94875C4.29427 7.43041 4.01759 7.94084 3.78972 8.4735C3.32275 9.57454 3.08209 10.7583 3.08209 11.9543C3.08209 13.1502 3.32275 14.334 3.78972 15.435C4.01022 15.9675 4.29522 16.4723 4.61622 16.959C4.93706 17.4341 5.30301 17.8772 5.70897 18.282C6.11374 18.688 6.5568 19.054 7.03197 19.3748C7.50897 19.6958 8.02347 19.9718 8.55597 20.2013C9.65701 20.6682 10.8408 20.9089 12.0367 20.9089C13.2327 20.9089 14.4164 20.6682 15.5175 20.2013C16.05 19.9808 16.5547 19.6958 17.0415 19.3748C17.5166 19.054 17.9597 18.688 18.3645 18.282C18.7705 17.8772 19.1364 17.4342 19.4572 16.959C19.7782 16.482 20.0542 15.9675 20.2837 15.435C20.9902 13.7687 21.1728 11.9268 20.8072 10.1543ZM12.045 19.788C7.71972 19.788 4.22097 16.2795 4.22097 11.9633C4.22097 7.647 7.72947 4.1385 12.045 4.1385C16.3612 4.1385 19.8697 7.647 19.8697 11.9633C19.8697 16.2795 16.362 19.788 12.045 19.788Z" fill="white"/>
<path d="M12.1837 19.1085H12.3952C12.4319 19.1085 12.4679 19.1085 12.5047 19.0987H12.5144C12.5512 19.0987 12.5782 19.0987 12.6149 19.0897H12.6427C12.6704 19.0897 12.6982 19.0897 12.7252 19.0807H12.7529C12.7807 19.0807 12.8084 19.0717 12.8452 19.0717H12.8632C12.8999 19.0717 12.9367 19.062 12.9734 19.062C13.0102 19.062 13.0379 19.053 13.0747 19.044H13.0927C13.1204 19.044 13.1482 19.035 13.1752 19.035H13.1939C13.2307 19.0252 13.2584 19.0252 13.2952 19.0162C13.3679 19.0072 13.4414 18.9885 13.5059 18.9705H13.5247C13.5517 18.9615 13.5884 18.9615 13.6162 18.9517H13.6252C13.6987 18.9337 13.7632 18.915 13.8367 18.897C13.1488 18.9188 12.4609 18.854 11.7892 18.7042C10.7782 18.4837 9.81444 18.0892 8.99694 17.409C8.35246 16.8726 7.83524 16.1998 7.48269 15.439C7.13014 14.6783 6.95107 13.8487 6.95844 13.0102C6.96506 11.7594 7.41014 10.5505 8.21619 9.594C9.26319 8.35425 10.7512 7.70175 12.2752 7.665H12.4867V6.444H12.2482C11.7846 6.45249 11.323 6.50777 10.8704 6.609C10.4151 6.71197 9.97185 6.86281 9.54819 7.059C9.11619 7.2615 8.71194 7.509 8.33544 7.794C7.94638 8.08974 7.59212 8.42866 7.27944 8.80425C6.98504 9.15185 6.72952 9.5306 6.51744 9.93375C6.30763 10.3224 6.13825 10.7315 6.01194 11.1547C5.88805 11.5714 5.80516 11.9992 5.76444 12.432L5.73669 12.8355V13.074C5.74569 13.5427 5.80119 14.0017 5.90169 14.4517C6.00294 14.9115 6.15894 15.3517 6.35169 15.7747C6.58194 16.2795 6.99519 17.0235 7.61019 17.5837C8.86592 18.5737 10.4189 19.1109 12.0179 19.1085H12.1837Z" fill="white"/>
<path d="M14.1855 17.9325C13.7325 17.9163 13.2813 17.8672 12.8355 17.7855C10.944 17.4458 9.31796 16.2885 8.72171 14.544C7.99571 12.4223 9.10721 10.1265 11.2192 9.429C11.6217 9.29412 12.0435 9.22573 12.468 9.2265C13.0102 9.2265 13.5517 9.33675 14.0482 9.5385L14.562 8.44575C14.4075 8.38381 14.2514 8.32579 14.094 8.27175C13.5678 8.10661 13.0194 8.02289 12.468 8.0235C11.9154 8.02454 11.3667 8.11444 10.8427 8.28975C10.174 8.51032 9.55809 8.86678 9.03371 9.33675C8.78081 9.56203 8.55025 9.81118 8.34521 10.0808C8.14252 10.3472 7.96714 10.6334 7.82171 10.935C7.52558 11.5413 7.3508 12.1996 7.30721 12.873C7.26146 13.5705 7.35296 14.268 7.58246 14.9295C7.8163 15.61 8.1921 16.233 8.68496 16.7573C9.13496 17.244 9.65846 17.6115 10.2915 17.9513C10.953 18.3 11.7705 18.4838 12.624 18.6038C13.1752 18.6765 13.9102 18.6953 14.3415 18.6953C14.718 18.5573 14.874 18.4928 15.0765 18.4103C15.2512 18.3278 15.4252 18.2453 15.6 18.144C15.7747 18.0428 15.8025 18.024 16.0957 17.832C16.1218 17.8158 16.1464 17.7972 16.1692 17.7765C15.159 17.9513 14.9017 17.9415 14.1855 17.9325Z" fill="white"/>
<path d="M16.4452 16.5645C16.1602 16.5825 15.756 16.6095 15.297 16.6095C14.4795 16.6095 13.4782 16.5367 12.6247 16.2517C11.3017 15.8115 10.053 14.682 10.053 13.2855C10.0527 12.955 10.1175 12.6276 10.2439 12.3222C10.3702 12.0168 10.5556 11.7393 10.7893 11.5056C11.023 11.2719 11.3005 11.0865 11.6059 10.9602C11.9114 10.8338 12.2387 10.7689 12.5692 10.7692C13.515 10.7692 14.3325 11.2927 14.7645 12.0547L15.8572 11.5132C15.6859 11.1907 15.4658 10.8964 15.2047 10.641C14.8588 10.2945 14.4479 10.0195 13.9956 9.83197C13.5433 9.6444 13.0585 9.54785 12.5688 9.54785C12.0792 9.54785 11.5943 9.6444 11.1421 9.83197C10.6898 10.0195 10.2789 10.2945 9.93296 10.641C9.58655 10.9869 9.31173 11.3977 9.12422 11.85C8.93672 12.3022 8.84021 12.7869 8.84021 13.2765C8.84266 13.7896 8.95252 14.2964 9.16271 14.7645C9.35471 15.1867 9.62171 15.582 9.96146 15.9495C10.5585 16.5915 11.3752 17.106 12.2482 17.4C13.0837 17.6752 14.3145 17.7765 15.5085 17.694C15.8385 17.6662 16.0867 17.6385 16.509 17.547C16.9164 17.2254 17.2863 16.8589 17.6115 16.4542C17.3265 16.482 16.803 16.5367 16.4452 16.5645Z" fill="white"/>
</svg>
