<svg width="24" height="24" viewBox="0 0 24 24" fill="none" xmlns="http://www.w3.org/2000/svg">
<circle cx="12" cy="12" r="12" fill="#0033AD"/>
<path d="M11.8107 4.89933C12.147 4.72399 12.5575 5.13076 12.3788 5.46672C12.275 5.74058 11.8816 5.8134 11.6807 5.60465C11.4677 5.40431 11.5372 5.00834 11.8107 4.89933ZM8.19387 5.28921C8.39814 5.20513 8.65673 5.39228 8.6359 5.61491C8.65757 5.8566 8.36204 6.03449 8.15383 5.91963C7.87797 5.81278 7.90952 5.36497 8.19387 5.28921ZM15.6016 5.92642C15.2824 5.88785 15.2319 5.38595 15.5392 5.28489C15.7776 5.16864 15.9963 5.38665 16.0311 5.6126C15.9812 5.80553 15.8196 5.98219 15.6016 5.92642ZM9.01683 6.82861C9.35834 6.6126 9.84565 6.93429 9.79312 7.33096C9.77538 7.73149 9.2434 7.96353 8.94323 7.69276C8.65302 7.48008 8.69699 6.99215 9.01683 6.82861ZM14.2302 7.0578C14.3826 6.66514 15 6.65326 15.1734 7.0355C15.3448 7.33297 15.134 7.70133 14.8286 7.80246C14.424 7.87798 14.0398 7.44066 14.2302 7.0578ZM11.3752 7.78017C11.3719 7.44266 11.6793 7.19118 12 7.16819C12.2128 7.21085 12.4447 7.30149 12.5359 7.51618C12.706 7.81233 12.555 8.22011 12.2477 8.35604C12.1071 8.4348 11.9409 8.40526 11.7879 8.39608C11.5539 8.28121 11.3569 8.05595 11.3752 7.78017ZM5.99637 8.27195C6.30834 8.08017 6.72923 8.43017 6.61112 8.76906C6.54609 9.06221 6.15204 9.18147 5.92679 8.99432C5.68633 8.81897 5.72444 8.39739 5.99637 8.27195ZM17.5466 8.27134C17.8113 8.06583 18.2481 8.30158 18.2165 8.63576C18.2343 8.94047 17.8567 9.17028 17.5939 9.01338C17.3045 8.88331 17.275 8.43812 17.5466 8.27134ZM12.8878 8.87807C13.3246 8.72116 13.8434 8.90892 14.0923 9.29834C14.4207 9.77439 14.246 10.4994 13.7364 10.7725C13.2083 11.0956 12.4373 10.8218 12.2423 10.2321C12.0209 9.70419 12.3434 9.04354 12.8878 8.87807ZM10.3251 8.92998C10.8092 8.70149 11.4606 8.89319 11.6945 9.38837C11.9696 9.87036 11.7569 10.5415 11.2649 10.7904C10.7724 11.0701 10.0775 10.858 9.8391 10.3405C9.5718 9.84012 9.80917 9.16041 10.3251 8.92998ZM7.75909 9.80725C7.79589 9.49537 8.09011 9.2924 8.38696 9.27142C8.70679 9.30999 8.96229 9.55839 8.99708 9.88208C8.9761 10.2025 8.72847 10.5157 8.38888 10.5138C8.01528 10.546 7.68773 10.1743 7.75909 9.80725ZM15.3382 9.33923C15.7218 9.11598 16.2544 9.44098 16.2373 9.88162C16.2637 10.3485 15.6742 10.6775 15.2923 10.4036C14.8955 10.1756 14.9265 9.5334 15.3382 9.33923ZM9.2822 10.9847C9.73079 10.8613 10.2437 11.0727 10.4637 11.485C10.7047 11.9001 10.6062 12.4766 10.2319 12.781C9.75185 13.2275 8.86648 13.0483 8.61098 12.4389C8.31737 11.8803 8.67401 11.1317 9.2822 10.9847ZM14.1429 10.9824C14.579 10.8576 15.0913 11.0257 15.3257 11.423C15.6357 11.8774 15.4877 12.5551 15.0263 12.848C14.5429 13.1881 13.7941 13.0095 13.5282 12.4777C13.2057 11.9276 13.5302 11.1502 14.1429 10.9824ZM6.39697 11.5008C6.78446 11.3542 7.21399 11.7818 7.05701 12.166C6.96112 12.516 6.46787 12.6453 6.21306 12.3873C5.91491 12.145 6.0253 11.6058 6.39697 11.5008ZM16.9 12.0583C16.8888 11.7372 17.1237 11.4529 17.453 11.4351C17.7183 11.4772 17.9764 11.6912 17.9554 11.9801C17.9797 12.3617 17.5199 12.621 17.1948 12.4418C17.0425 12.3643 16.9643 12.208 16.9 12.0583ZM4.49169 11.6892C4.72482 11.5875 5.01318 11.7895 4.95995 12.0484C4.94745 12.3416 4.51468 12.4543 4.35569 12.2093C4.21521 12.0392 4.2993 11.7769 4.49169 11.6892ZM19.1908 11.6834C19.3549 11.5665 19.6183 11.6505 19.6833 11.8423C19.7936 12.0517 19.5914 12.3387 19.3556 12.3033C19.0247 12.3335 18.9176 11.8291 19.1908 11.6834ZM10.5484 13.0905C11.1619 12.931 11.8213 13.4425 11.8251 14.0742C11.8652 14.7125 11.2157 15.2785 10.5878 15.1311C10.1024 15.0529 9.72153 14.5853 9.73727 14.0949C9.73596 13.6258 10.09 13.1897 10.5484 13.0905ZM12.9778 13.0892C13.6004 12.9152 14.2795 13.4359 14.2697 14.0821C14.3025 14.7086 13.6733 15.2556 13.0585 15.1313C12.4799 15.0565 12.053 14.4208 12.2146 13.8594C12.2961 13.4852 12.6087 13.181 12.9778 13.0892ZM8.29377 13.478C8.72461 13.4045 9.12853 13.8852 8.9538 14.2943C8.82636 14.7302 8.19194 14.8485 7.91145 14.4924C7.58243 14.1504 7.82805 13.5252 8.29377 13.478ZM15.4183 13.4972C15.8025 13.3363 16.2741 13.6687 16.2445 14.0856C16.2599 14.5446 15.6777 14.8611 15.3021 14.5932C14.8765 14.3527 14.954 13.6448 15.4183 13.4972ZM17.4097 15.4946C17.2593 15.2142 17.5325 14.8425 17.8439 14.8945C17.9988 14.8918 18.1072 15.014 18.2064 15.1164C18.2268 15.2826 18.261 15.4808 18.123 15.6089C17.9357 15.8459 17.5114 15.7783 17.4097 15.4946ZM5.99506 14.9725C6.28604 14.7788 6.70477 15.0677 6.63936 15.4079C6.60456 15.7088 6.22556 15.8807 5.97593 15.71C5.70801 15.555 5.71788 15.1138 5.99506 14.9725ZM11.7438 15.6023C12.1247 15.4342 12.61 15.7659 12.5739 16.1854C12.6021 16.6491 12.0019 16.9701 11.6294 16.6917C11.2157 16.4527 11.2847 15.7494 11.7438 15.6023ZM9.08117 16.2235C9.40563 16.0528 9.84103 16.3476 9.81148 16.7107C9.82135 17.0089 9.53037 17.263 9.23615 17.2189C8.99245 17.2137 8.83354 16.9952 8.75539 16.7875C8.7594 16.5611 8.85259 16.3089 9.08117 16.2235ZM14.4745 16.2287C14.8082 16.0225 15.2824 16.3187 15.2508 16.707C15.2594 17.1129 14.7235 17.3728 14.4128 17.1062C14.1121 16.8972 14.1488 16.3949 14.4745 16.2287ZM15.4125 18.5474C15.264 18.3229 15.4388 18.0523 15.6798 18.0011C15.8735 18.0405 16.0784 18.1862 16.0377 18.4109C16.0095 18.7149 15.5648 18.8082 15.4125 18.5474ZM7.9673 18.3524C8.02639 18.1744 8.16957 17.9975 8.37909 18.0438C8.6845 18.0655 8.77514 18.5258 8.50784 18.6677C8.26746 18.8298 7.98859 18.6078 7.9673 18.3524ZM11.5592 18.5566C11.6176 18.2933 11.9584 18.1652 12.1831 18.3051C12.3315 18.3688 12.3749 18.5349 12.413 18.6761C12.3926 18.7496 12.3744 18.8232 12.3565 18.8967C12.2646 19.0057 12.1464 19.1147 11.9933 19.1108C11.7089 19.1441 11.4523 18.8226 11.5592 18.5566Z" fill="white"/>
</svg>
