<svg width="24" height="24" viewBox="0 0 24 24" fill="none" xmlns="http://www.w3.org/2000/svg">
<circle cx="12" cy="12" r="12" fill="#C2A633"/>
<path fill-rule="evenodd" clip-rule="evenodd" d="M8.0318 18.2774H12.1747H12.1748C12.1748 18.2774 18 18.7735 18 12.1011C18 5.68742 12.6805 5.71017 11.6524 5.71457C11.6283 5.71467 11.6066 5.71476 11.5874 5.71476H8.03168V11.3109H6.57141V12.6816H8.0318V18.2774ZM10.3653 8.03682H11.9998C12.6111 8.03682 15.6868 8.28682 15.6917 12.1463C15.6966 15.9598 12.5956 15.9559 12.0967 15.9553C12.0907 15.9552 12.0851 15.9552 12.0798 15.9552H10.3653V12.6815H12.9368V11.3108H10.3653V8.03682Z" fill="white"/>
</svg>
