<svg width="24" height="24" viewBox="0 0 24 24" fill="none" xmlns="http://www.w3.org/2000/svg">
<rect width="24" height="24" rx="12" fill="white"/>
<g clip-path="url(#clip0_98_2981)">
<path d="M12.0003 20.262C13.6318 20.262 14.9544 19.4984 14.9544 18.5564C14.9544 17.6145 13.6318 16.8509 12.0003 16.8509C10.3688 16.8509 9.04614 17.6145 9.04614 18.5564C9.04614 19.4984 10.3688 20.262 12.0003 20.262Z" fill="#E6007A"/>
<path d="M19.0936 16.1965C19.9094 14.794 19.9045 13.2752 19.0828 12.8042C18.2611 12.3333 16.9336 13.0885 16.1179 14.491C15.3021 15.8936 15.307 17.4123 16.1287 17.8833C16.9504 18.3543 18.2779 17.5991 19.0936 16.1965Z" fill="#E6007A"/>
<path d="M12.0003 7.41107C13.6318 7.41107 14.9544 6.64747 14.9544 5.70553C14.9544 4.76359 13.6318 4 12.0003 4C10.3688 4 9.04614 4.76359 9.04614 5.70553C9.04614 6.64747 10.3688 7.41107 12.0003 7.41107Z" fill="#E6007A"/>
<path d="M7.88351 9.7719C8.69928 8.36933 8.69399 6.85027 7.87168 6.37898C7.04938 5.90769 5.72145 6.66263 4.90568 8.0652C4.0899 9.46776 4.0952 10.9868 4.9175 11.4581C5.73981 11.9294 7.06773 11.1745 7.88351 9.7719Z" fill="#E6007A"/>
<path d="M7.87207 17.883C8.69437 17.4117 8.69967 15.8926 7.8839 14.4901C7.06813 13.0875 5.74022 12.3326 4.91792 12.8039C4.09562 13.2752 4.09033 14.7942 4.90609 16.1968C5.72186 17.5993 7.04977 18.3543 7.87207 17.883Z" fill="#E6007A"/>
<path d="M19.0836 11.4585C19.9053 10.9875 19.9102 9.4687 19.0944 8.06616C18.2786 6.66361 16.9511 5.90842 16.1294 6.37938C15.3076 6.85035 15.3028 8.36914 16.1186 9.77168C16.9343 11.1742 18.2618 11.9294 19.0836 11.4585Z" fill="#E6007A"/>
</g>
<defs>
<clipPath id="clip0_98_2981">
<rect width="17.1429" height="16.2712" fill="white" transform="translate(3.42859 4)"/>
</clipPath>
</defs>
</svg>
