<svg width="22" height="16" viewBox="0 0 22 16" fill="none" xmlns="http://www.w3.org/2000/svg">
<path d="M18.294 1.35132C20.6509 4.83814 21.8149 8.77119 21.3798 13.299C21.378 13.3182 21.3681 13.3358 21.3524 13.3473C19.5676 14.666 17.8383 15.4663 16.1332 15.9971C16.1199 16.0011 16.1057 16.0009 16.0926 15.9964C16.0794 15.992 16.068 15.9835 16.0599 15.9721C15.666 15.4207 15.3081 14.8393 14.9945 14.2287C14.9765 14.1928 14.993 14.1495 15.03 14.1353C15.5984 13.9198 16.139 13.6615 16.6589 13.3557C16.6998 13.3316 16.7024 13.2725 16.6646 13.2442C16.5543 13.1617 16.445 13.0751 16.3403 12.9885C16.3208 12.9725 16.2944 12.9693 16.2723 12.9801C12.8969 14.5484 9.19931 14.5484 5.78401 12.9801C5.76184 12.9701 5.73549 12.9735 5.71645 12.9893C5.6121 13.0759 5.50253 13.1617 5.39323 13.2442C5.3554 13.2725 5.35853 13.3316 5.39975 13.3557C5.91966 13.6557 6.46018 13.9198 7.02784 14.1363C7.06462 14.1505 7.0821 14.1928 7.06384 14.2287C6.75705 14.8401 6.39914 15.4215 5.99792 15.9729C5.98045 15.9952 5.95175 16.0055 5.92462 15.9971C4.22767 15.4663 2.49836 14.666 0.713498 13.3473C0.698629 13.3358 0.687933 13.3174 0.686368 13.2982C0.322716 9.38172 1.06385 5.41613 3.76932 1.35053C3.77584 1.33977 3.78575 1.33137 3.79723 1.32638C5.12845 0.711648 6.55462 0.25939 8.04523 0.0011065C8.07236 -0.00309323 8.09949 0.00950595 8.11357 0.0336544C8.29775 0.361758 8.50827 0.782518 8.6507 1.12637C10.2219 0.884887 11.8177 0.884887 13.4217 1.12637C13.5642 0.789868 13.7674 0.361758 13.9508 0.0336544C13.9573 0.0216746 13.9674 0.0120771 13.9797 0.00623194C13.992 0.000386826 14.0058 -0.00140702 14.0191 0.0011065C15.5105 0.260177 16.9367 0.712435 18.2669 1.32638C18.2786 1.33137 18.2883 1.33977 18.294 1.35132ZM9.44948 8.79796C9.46592 7.64015 8.62696 6.68209 7.57384 6.68209C6.52931 6.68209 5.69845 7.63175 5.69845 8.79796C5.69845 9.96391 6.54575 10.9136 7.57384 10.9136C8.61862 10.9136 9.44948 9.96391 9.44948 8.79796ZM16.3839 8.79796C16.4003 7.64015 15.5614 6.68209 14.5085 6.68209C13.4637 6.68209 12.6329 7.63175 12.6329 8.79796C12.6329 9.96391 13.4802 10.9136 14.5085 10.9136C15.5614 10.9136 16.3839 9.96391 16.3839 8.79796Z" fill="#5865F2"/>
</svg>
