<svg width="23" height="23" viewBox="0 0 23 23" fill="none" xmlns="http://www.w3.org/2000/svg">
<path d="M7.48596 11.1215C7.48596 9.111 9.11635 7.48072 11.1281 7.48072C13.1398 7.48072 14.7711 9.111 14.7711 11.1215C14.7711 13.1321 13.1398 14.7624 11.1281 14.7624C9.11635 14.7624 7.48596 13.1321 7.48596 11.1215ZM5.51662 11.1215C5.51662 14.2189 8.02887 16.7296 11.1281 16.7296C14.2273 16.7296 16.7396 14.2189 16.7396 11.1215C16.7396 8.02417 14.2273 5.51343 11.1281 5.51343C8.02887 5.51343 5.51662 8.02417 5.51662 11.1215ZM15.6503 5.29107C15.6502 5.55028 15.727 5.8037 15.871 6.01928C16.0151 6.23487 16.2198 6.40293 16.4594 6.50222C16.699 6.60151 16.9626 6.62757 17.217 6.5771C17.4714 6.52664 17.7051 6.40191 17.8886 6.21869C18.0721 6.03548 18.1971 5.802 18.2478 5.54779C18.2985 5.29358 18.2726 5.03006 18.1735 4.79054C18.0743 4.55102 17.9063 4.34627 17.6907 4.20217C17.4751 4.05807 17.2216 3.98111 16.9622 3.981H16.9617C16.614 3.98117 16.2807 4.11923 16.0348 4.36486C15.7889 4.6105 15.6506 4.94362 15.6503 5.29107ZM6.71312 20.0114C5.64767 19.963 5.06857 19.7856 4.68372 19.6357C4.17351 19.4372 3.80947 19.2008 3.42672 18.8188C3.04398 18.4368 2.80706 18.0733 2.6093 17.5634C2.45928 17.179 2.28181 16.6001 2.23337 15.5353C2.18039 14.384 2.16981 14.0382 2.16981 11.1216C2.16981 8.20504 2.18127 7.86018 2.23337 6.70799C2.28189 5.64318 2.46068 5.06539 2.6093 4.67981C2.80793 4.1699 3.0445 3.80608 3.42672 3.42357C3.80895 3.04105 4.17264 2.80427 4.68372 2.60663C5.06839 2.4567 5.64767 2.27933 6.71312 2.23093C7.86503 2.17798 8.21106 2.16741 11.1281 2.16741C14.0451 2.16741 14.3915 2.17885 15.5444 2.23093C16.6098 2.27942 17.188 2.4581 17.5738 2.60663C18.084 2.80427 18.448 3.04157 18.8308 3.42357C19.2135 3.80556 19.4496 4.1699 19.6482 4.67981C19.7982 5.06425 19.9757 5.64318 20.0241 6.70799C20.0771 7.86018 20.0877 8.20504 20.0877 11.1216C20.0877 14.0382 20.0771 14.3831 20.0241 15.5353C19.9756 16.6001 19.7973 17.1788 19.6482 17.5634C19.4496 18.0733 19.213 18.4372 18.8308 18.8188C18.4485 19.2005 18.084 19.4372 17.5738 19.6357C17.1891 19.7857 16.6098 19.963 15.5444 20.0114C14.3925 20.0644 14.0464 20.075 11.1281 20.075C8.20975 20.075 7.86469 20.0644 6.71312 20.0114ZM6.62264 0.266092C5.45927 0.31904 4.66431 0.503396 3.97007 0.773378C3.25109 1.05218 2.64243 1.42623 2.03422 2.03312C1.426 2.64001 1.0527 3.24926 0.773722 3.96781C0.503579 4.66207 0.319112 5.45612 0.266132 6.61879C0.212278 7.78329 0.199951 8.15558 0.199951 11.1215C0.199951 14.0875 0.212278 14.4598 0.266132 15.6243C0.319112 16.787 0.503579 17.581 0.773722 18.2753C1.0527 18.9934 1.42609 19.6033 2.03422 20.21C2.64235 20.8166 3.25109 21.1901 3.97007 21.4697C4.66563 21.7397 5.45927 21.924 6.62264 21.977C7.78845 22.0299 8.16036 22.0431 11.1281 22.0431C14.0958 22.0431 14.4683 22.0308 15.6335 21.977C16.797 21.924 17.5914 21.7397 18.2861 21.4697C19.0047 21.1901 19.6137 20.8168 20.222 20.21C20.8302 19.6031 21.2027 18.9934 21.4825 18.2753C21.7526 17.581 21.9379 16.787 21.99 15.6243C22.043 14.4589 22.0554 14.0875 22.0554 11.1215C22.0554 8.15558 22.043 7.78329 21.99 6.61879C21.9371 5.45603 21.7526 4.66164 21.4825 3.96781C21.2027 3.24969 20.8292 2.64097 20.222 2.03312C19.6147 1.42527 19.0047 1.05218 18.287 0.773378C17.5914 0.503396 16.7969 0.318166 15.6344 0.266092C14.4692 0.213144 14.0967 0.199951 11.129 0.199951C8.16123 0.199951 7.78845 0.212271 6.62264 0.266092Z" fill="url(#paint0_linear_501_5059)"/>
<defs>
<linearGradient id="paint0_linear_501_5059" x1="21.6353" y1="22.0431" x2="-0.207876" y2="0.187724" gradientUnits="userSpaceOnUse">
<stop stop-color="#FBE18A"/>
<stop offset="0.21" stop-color="#FCBB45"/>
<stop offset="0.38" stop-color="#F75274"/>
<stop offset="0.52" stop-color="#D53692"/>
<stop offset="0.74" stop-color="#8F39CE"/>
<stop offset="1" stop-color="#5B4FE9"/>
</linearGradient>
</defs>
</svg>
