<svg width="23" height="23" viewBox="0 0 23 23" fill="none" xmlns="http://www.w3.org/2000/svg">
<path fill-rule="evenodd" clip-rule="evenodd" d="M1.81527 0.199951C0.923428 0.199951 0.199951 0.901401 0.199951 1.76558V20.4911C0.199951 21.3554 0.923513 22.0562 1.81527 22.0562H20.4409C21.3331 22.0562 22.0562 21.3553 22.0562 20.4909V1.76558C22.0562 0.901401 21.3331 0.199951 20.4409 0.199951H1.81527ZM6.84169 8.65106V18.4908H3.5711V8.65106H6.84169ZM7.05726 5.608C7.05726 6.55226 6.34736 7.30784 5.20708 7.30784L5.18565 7.30776C4.08797 7.30776 3.37832 6.55218 3.37832 5.60792C3.37832 4.64223 4.1094 3.90774 5.22876 3.90774C6.34736 3.90774 7.03592 4.64223 7.05726 5.608ZM11.9223 18.4908H8.652C8.652 18.4908 8.69486 9.57449 8.65217 8.6514H11.9226V10.0442C12.3573 9.37385 13.1354 8.42038 14.8702 8.42038C17.0219 8.42038 18.6352 9.82678 18.6352 12.849V18.4908H15.3649V13.2274C15.3649 11.9045 14.8914 11.0022 13.7082 11.0022C12.8045 11.0022 12.2664 11.6107 12.0301 12.1985C11.9437 12.4083 11.9223 12.7028 11.9223 12.9964V18.4908Z" fill="#006699"/>
</svg>
