<svg width="25" height="25" viewBox="0 0 25 25" fill="none" xmlns="http://www.w3.org/2000/svg">
<path fill-rule="evenodd" clip-rule="evenodd" d="M24.9384 12.6441C24.9384 19.434 19.4341 24.9383 12.6443 24.9383C5.85439 24.9383 0.350098 19.434 0.350098 12.6441C0.350098 5.85427 5.85439 0.349976 12.6443 0.349976C19.4341 0.349976 24.9384 5.85427 24.9384 12.6441ZM13.8224 8.87171C11.7103 9.78401 5.6204 12.3749 5.6204 12.3749C4.17714 12.9587 5.02193 13.5061 5.02193 13.5061C5.02193 13.5061 6.25399 13.944 7.31008 14.2724C8.36611 14.6008 8.92936 14.2359 8.92936 14.2359C8.92936 14.2359 11.3935 12.5573 13.8928 10.7692C15.6529 9.52856 15.2305 10.5503 14.808 10.9882C13.8928 11.937 12.3791 13.4331 11.1118 14.6373C10.5486 15.1482 10.8302 15.5861 11.0767 15.805C11.7933 16.4336 13.4812 17.5769 14.2476 18.0959C14.4599 18.2398 14.6015 18.3357 14.632 18.3594C14.808 18.5054 15.7937 19.1622 16.3921 19.0163C16.9905 18.8703 17.0609 18.031 17.0609 18.031C17.0609 18.031 17.5186 15.0387 17.941 12.3019C18.0192 11.7645 18.0975 11.2384 18.1704 10.7479C18.3601 9.47285 18.514 8.43785 18.5394 8.0689C18.645 6.82823 17.3778 7.33907 17.3778 7.33907C17.3778 7.33907 14.632 8.50682 13.8224 8.87171Z" fill="#34AADF"/>
</svg>
