<svg width="19" height="16" viewBox="0 0 19 16" fill="none" xmlns="http://www.w3.org/2000/svg">
<path d="M18.6763 2.25126C18.0867 2.51151 17.4668 2.69274 16.8321 2.79046C17.1288 2.73828 17.5655 2.19038 17.7393 1.96862C18.0034 1.6341 18.2047 1.25222 18.3329 0.842386C18.3329 0.811947 18.3626 0.768463 18.3329 0.746722C18.3179 0.738348 18.3012 0.733961 18.2841 0.733961C18.2671 0.733961 18.2503 0.738348 18.2354 0.746722C17.5461 1.12956 16.8125 1.42176 16.052 1.6164C16.0254 1.6247 15.9972 1.62545 15.9703 1.61855C15.9435 1.61166 15.9189 1.59738 15.8993 1.57726C15.8401 1.50496 15.7764 1.43669 15.7085 1.37289C15.3983 1.08783 15.0464 0.854522 14.6656 0.681496C14.1515 0.465198 13.5963 0.371523 13.0418 0.407548C12.5037 0.442399 11.9784 0.590414 11.4986 0.842386C11.026 1.10804 10.6107 1.46894 10.2775 1.90339C9.92711 2.35056 9.67412 2.8695 9.53558 3.42532C9.42134 3.95402 9.40838 4.50045 9.49743 5.03422C9.49743 5.12554 9.49743 5.13858 9.42111 5.12554C6.39823 4.66896 3.91802 3.56882 1.89146 1.20765C1.80243 1.10329 1.75579 1.10329 1.68372 1.20765C0.801866 2.58174 1.23007 4.75593 2.33239 5.82998C2.48077 5.97347 2.6334 6.11262 2.79451 6.24307C2.28911 6.20627 1.79605 6.0658 1.34454 5.82998C1.25975 5.77345 1.21311 5.80389 1.20887 5.90825C1.19686 6.05293 1.19686 6.1984 1.20887 6.34309C1.29734 7.03648 1.56377 7.69333 1.98092 8.24647C2.39807 8.79962 2.95097 9.22921 3.58309 9.49131C3.73718 9.55901 3.89775 9.61001 4.06217 9.64351C3.59429 9.73798 3.11442 9.75267 2.64188 9.68699C2.54013 9.66525 2.50197 9.72178 2.54013 9.82179C3.16336 11.5611 4.51582 12.0916 5.5079 12.3873C5.64357 12.4091 5.77924 12.4091 5.93187 12.4439C5.93187 12.4439 5.93186 12.4439 5.90643 12.47C5.61389 13.0178 4.43102 13.3875 3.88834 13.5788C2.89782 13.9437 1.84173 14.0832 0.793386 13.9875C0.628039 13.9614 0.589882 13.9658 0.547486 13.9875C0.505089 14.0093 0.547486 14.0571 0.594122 14.1006C0.806105 14.2441 1.01809 14.3702 1.23855 14.4919C1.89487 14.8591 2.58873 15.1508 3.30751 15.3616C7.02994 16.4139 11.2187 15.6399 14.0127 12.7917C16.2088 10.5567 16.9804 7.47366 16.9804 4.38631C16.9804 4.26891 17.1204 4.19933 17.2009 4.13846C17.7565 3.69444 18.2464 3.17007 18.6551 2.58174C18.7259 2.49404 18.7622 2.38238 18.7569 2.26865C18.7569 2.20343 18.7569 2.21647 18.6763 2.25126Z" fill="#33CCFF"/>
</svg>
