<svg width="21" height="20" viewBox="0 0 21 20" fill="none" xmlns="http://www.w3.org/2000/svg">
<path d="M0.75 20L2.14908 14.6692C1.02076 12.5926 0.662277 10.1694 1.13942 7.84424C1.61657 5.51906 2.89733 3.4479 4.7467 2.01082C6.59606 0.573734 8.88997 -0.132879 11.2075 0.0206447C13.525 0.174168 15.7107 1.17753 17.3634 2.84661C19.0162 4.5157 20.0252 6.73854 20.2052 9.10725C20.3852 11.476 19.7243 13.8316 18.3436 15.742C16.9629 17.6524 14.9551 18.9894 12.6887 19.5076C10.4222 20.0258 8.0491 19.6904 6.00481 18.5631L0.75 20ZM6.25819 16.5683L6.58317 16.7655C8.06389 17.6633 9.79334 18.0349 11.502 17.8222C13.2107 17.6096 14.8026 16.8246 16.0297 15.5898C17.2568 14.3549 18.0501 12.7394 18.2861 10.9951C18.522 9.2508 18.1873 7.47565 17.3341 5.94627C16.4809 4.4169 15.1571 3.21922 13.5691 2.53987C11.9811 1.86052 10.218 1.73766 8.55458 2.19045C6.89118 2.64323 5.4209 3.64622 4.37287 5.04311C3.32484 6.44 2.75793 8.15233 2.76049 9.91325C2.7591 11.3733 3.15381 12.8052 3.90068 14.0494L4.10449 14.3931L3.32233 17.3684L6.25819 16.5683Z" fill="#00D95F"/>
<path fill-rule="evenodd" clip-rule="evenodd" d="M14.1458 11.2821C13.9553 11.1249 13.7322 11.0142 13.4935 10.9585C13.2549 10.9029 13.007 10.9037 12.7687 10.9609C12.4107 11.113 12.1793 11.6878 11.948 11.9752C11.8992 12.0441 11.8275 12.0924 11.7464 12.111C11.6653 12.1297 11.5803 12.1175 11.5073 12.0766C10.1966 11.5514 9.09788 10.5882 8.38971 9.34359C8.3293 9.26592 8.30072 9.16731 8.30996 9.06851C8.31921 8.96971 8.36557 8.87843 8.43928 8.8139C8.6973 8.55258 8.88675 8.22892 8.9901 7.87284C9.01305 7.48009 8.92509 7.08887 8.73672 6.74583C8.5911 6.26491 8.31395 5.83669 7.93803 5.51176C7.74415 5.42255 7.52917 5.39263 7.31903 5.42563C7.1089 5.45863 6.91258 5.55312 6.75377 5.69771C6.47807 5.94106 6.25924 6.24457 6.11339 6.5859C5.96753 6.92723 5.89838 7.29769 5.91102 7.66998C5.91187 7.87905 5.93777 8.08722 5.98814 8.28984C6.11604 8.77665 6.31274 9.24176 6.572 9.67043C6.75906 9.9988 6.96315 10.3167 7.18341 10.6228C7.89923 11.628 8.79902 12.4816 9.83285 13.136C10.3516 13.4685 10.9061 13.7389 11.4853 13.9418C12.087 14.2208 12.7513 14.3279 13.4077 14.2517C13.7817 14.1938 14.136 14.0428 14.4395 13.8118C14.743 13.5809 14.9864 13.2772 15.1483 12.9275C15.2433 12.7162 15.2722 12.48 15.2309 12.2513C15.1317 11.7836 14.5203 11.5075 14.1458 11.2821Z" fill="#00D95F"/>
</svg>
