<svg width="24" height="16" viewBox="0 0 24 16" fill="none" xmlns="http://www.w3.org/2000/svg">
<path fill-rule="evenodd" clip-rule="evenodd" d="M20.7081 0.476364C21.691 0.741818 22.4636 1.51636 22.7248 2.49818C23.1999 4.28 23.1999 8 23.1999 8C23.1999 8 23.1999 11.72 22.7248 13.5018C22.46 14.4873 21.6874 15.2618 20.7081 15.5236C18.9308 16 11.7999 16 11.7999 16C11.7999 16 4.67264 16 2.89173 15.5236C1.90878 15.2582 1.13621 14.4836 0.875053 13.5018C0.399902 11.72 0.399902 8 0.399902 8C0.399902 8 0.399902 4.28 0.875053 2.49818C1.13983 1.51273 1.91241 0.738182 2.89173 0.476364C4.67264 0 11.7999 0 11.7999 0C11.7999 0 18.9308 0 20.7081 0.476364ZM15.4451 8L9.52208 11.4291V4.57091L15.4451 8Z" fill="#FF3000"/>
</svg>
